<?xml version="1.0" encoding="UTF-8"?>
<svg id="Camada_1" data-name="Camada 1" xmlns="http://www.w3.org/2000/svg" viewBox="0 0 70 70">
  <defs>
    <style>
      .cls-1 {
        fill: none;
        stroke: #fff;
        stroke-miterlimit: 10;
        stroke-width: .75px;
      }

      .cls-2 {
        fill: #fff;
      }
    </style>
  </defs>
  <circle class="cls-1" cx="35" cy="35" r="19.14"/>
  <path id="facebook-svgrepo-com" class="cls-2" d="M29.59,35.75h2.51v10.32c0,.2.16.37.37.37h4.25c.2,0,.37-.16.37-.37v-10.27h2.88c.19,0,.35-.14.37-.33l.44-3.8c.02-.2-.12-.38-.32-.41-.01,0-.03,0-.04,0h-3.32v-2.4c0-.72.39-1.08,1.15-1.08h2.17c.2,0,.37-.16.37-.37v-3.47c0-.2-.16-.37-.36-.37,0,0,0,0,0,0h-3.13c-1.38,0-2.71.51-3.75,1.41-1,.87-1.49,2.18-1.31,3.5v2.79h-2.63c-.2,0-.37.16-.37.37v3.75c0,.2.16.37.37.37Z"/>
</svg>