<?xml version="1.0" encoding="UTF-8"?>
<svg id="Camada_1" data-name="Camada 1" xmlns="http://www.w3.org/2000/svg" viewBox="0 0 70 70">
  <defs>
    <style>
      .cls-1 {
        fill: none;
        stroke: #fff;
        stroke-miterlimit: 10;
        stroke-width: .75px;
      }

      .cls-2 {
        fill: #fff;
      }
    </style>
  </defs>
  <circle class="cls-1" cx="35" cy="35" r="19.14"/>
  <g>
    <path class="cls-2" d="M44.93,30.89c-.02-.83-.17-1.65-.47-2.42-.25-.67-.64-1.28-1.15-1.78-.5-.5-1.1-.89-1.77-1.14-.77-.3-1.59-.45-2.42-.47-1.04-.06-1.41-.06-4.12-.06s-3.05,0-4.11.06c-.82.02-1.64.17-2.41.46-1.32.51-2.37,1.56-2.88,2.88-.32.78-.49,1.62-.52,2.46,0,1.08-.06,1.41-.06,4.12s0,3.06.06,4.12c.02.83.18,1.65.46,2.42.26.65.65,1.24,1.15,1.73.5.52,1.11.93,1.79,1.19.78.29,1.59.45,2.42.46,1.07.05,1.41.06,4.12.06s3.05,0,4.11-.06c.83-.01,1.65-.17,2.42-.46,1.34-.51,2.4-1.55,2.93-2.88.29-.78.44-1.6.46-2.42.05-1.07.06-1.41.06-4.12s-.02-3.09-.07-4.15ZM43.13,39.05c-.01.63-.13,1.25-.35,1.85-.34.89-1.04,1.59-1.92,1.92-.59.22-1.22.34-1.85.35-1.06,0-1.37.06-4.04.06s-2.99,0-4.04-.06c-.63,0-1.26-.13-1.86-.35-.43-.16-.82-.42-1.14-.75-.33-.32-.59-.71-.75-1.14-.22-.59-.33-1.22-.35-1.86,0-1.06-.06-1.37-.06-4.04s0-2.99.06-4.04c.02-.64.14-1.27.37-1.87.16-.43.42-.82.75-1.14.32-.33.71-.59,1.14-.75.6-.2,1.22-.3,1.86-.29,1.06-.05,1.37-.06,4.04-.06s2.99,0,4.04.06c.63,0,1.26.12,1.86.34.43.16.82.42,1.14.75.33.32.59.71.75,1.14.22.59.33,1.22.35,1.86,0,1.06.06,1.37.06,4.04s-.02,2.93-.06,3.99Z"/>
    <path class="cls-2" d="M34.99,29.87c-2.83,0-5.13,2.3-5.13,5.13s2.3,5.13,5.13,5.13,5.13-2.3,5.13-5.13-2.3-5.13-5.13-5.13h0ZM34.99,38.34c-1.84,0-3.34-1.49-3.34-3.34,0-1.84,1.49-3.34,3.34-3.34s3.34,1.49,3.34,3.34c0,1.84-1.48,3.33-3.32,3.34,0,0-.01,0-.02,0Z"/>
    <path class="cls-2" d="M41.53,29.67c0,.66-.54,1.2-1.2,1.2s-1.2-.54-1.2-1.2.54-1.2,1.2-1.2h0c.66,0,1.2.54,1.2,1.2Z"/>
  </g>
</svg>