<?xml version="1.0" encoding="UTF-8"?>
<svg id="Camada_1" data-name="Camada 1" xmlns="http://www.w3.org/2000/svg" viewBox="0 0 70 70">
  <defs>
    <style>
      .cls-1 {
        fill: none;
        stroke: #fff;
        stroke-miterlimit: 10;
        stroke-width: .75px;
      }

      .cls-2 {
        fill: #fff;
      }
    </style>
  </defs>
  <circle class="cls-1" cx="35" cy="35" r="19.14"/>
  <g>
    <path class="cls-2" d="M30.4,31.93h-3.46c-.15,0-.28.12-.28.28v11.1c0,.15.12.28.28.28h3.46c.15,0,.28-.12.28-.28v-11.1c0-.15-.12-.28-.28-.28Z"/>
    <path class="cls-2" d="M28.68,26.42c-1.26,0-2.28,1.02-2.28,2.28s1.02,2.28,2.28,2.28,2.28-1.02,2.28-2.28h0c0-1.26-1.02-2.28-2.28-2.28Z"/>
    <path class="cls-2" d="M39.19,31.66c-1.15-.02-2.25.44-3.03,1.27v-.73c0-.15-.12-.28-.28-.28h-3.31c-.15,0-.28.12-.28.28v11.1c0,.15.12.28.28.28h3.45c.15,0,.28-.12.28-.28v-5.49c0-1.85.5-2.57,1.79-2.57,1.4,0,1.52,1.15,1.52,2.67v5.4c0,.15.12.28.28.28h3.45c.15,0,.28-.12.28-.28v-6.09c0-2.75-.52-5.56-4.41-5.56Z"/>
  </g>
</svg>