<?xml version="1.0" encoding="UTF-8"?>
<svg id="Camada_1" data-name="Camada 1" xmlns="http://www.w3.org/2000/svg" viewBox="0 0 150 70">
  <defs>
    <style>
      .cls-1 {
        fill: #fff;
      }
    </style>
  </defs>
  <polygon class="cls-1" points="74.78 47.6 98.43 4.99 88.91 4.99 85.28 12.35 55.06 12.35 59.4 20.01 81.49 20.01 78.16 26.75 63.73 26.75 74.78 47.6"/>
  <path class="cls-1" d="M17.92,54.14h4.29v1.6h-2.66v1.57h2.66v1.58h-2.66v3.88h-1.63v-8.63ZM23.5,56.39h1.62v3.08c0,.6.04,1.01.12,1.25.08.23.22.42.4.54.18.13.41.19.67.19s.49-.06.68-.19c.19-.13.32-.31.41-.56.07-.18.1-.58.1-1.18v-3.13h1.61v2.71c0,1.12-.09,1.88-.26,2.29-.21.5-.53.88-.95,1.15-.42.27-.95.4-1.6.4-.7,0-1.27-.16-1.7-.47-.43-.31-.74-.75-.91-1.31-.12-.39-.19-1.09-.19-2.11v-2.66ZM30.73,56.39h1.6v.65c.36-.31.69-.52.99-.64.3-.12.6-.18.91-.18.64,0,1.17.22,1.62.66.37.37.56.93.56,1.67v4.22h-1.59v-2.8c0-.76-.03-1.27-.1-1.52-.07-.25-.19-.44-.36-.57-.17-.13-.38-.2-.63-.2-.33,0-.61.11-.84.33-.23.22-.4.52-.49.9-.05.2-.07.63-.07,1.3v2.56h-1.6v-6.39ZM42.68,53.93h1.6v8.85h-1.6v-.67c-.31.3-.63.51-.94.64-.32.13-.66.2-1.03.2-.83,0-1.54-.32-2.15-.96-.6-.64-.9-1.43-.9-2.39s.29-1.79.87-2.42c.58-.63,1.29-.95,2.13-.95.38,0,.74.07,1.08.22.34.15.65.36.93.65v-3.17ZM40.99,57.71c-.5,0-.91.17-1.24.52-.33.35-.49.8-.49,1.35s.17,1.01.5,1.36c.33.36.75.53,1.24.53s.92-.18,1.26-.53c.33-.35.5-.81.5-1.38s-.17-1.01-.5-1.35c-.33-.34-.75-.52-1.26-.52M50.63,56.39h1.6v6.39h-1.6v-.67c-.31.3-.63.51-.94.64-.32.13-.66.2-1.03.2-.83,0-1.54-.32-2.14-.96-.6-.64-.9-1.43-.9-2.39s.29-1.79.87-2.42c.58-.63,1.29-.95,2.13-.95.38,0,.74.07,1.08.22.34.15.65.36.93.65v-.71ZM48.94,57.71c-.5,0-.91.17-1.24.52-.33.35-.49.8-.49,1.35s.17,1.01.5,1.36c.34.36.75.53,1.24.53s.92-.18,1.26-.53c.33-.35.5-.81.5-1.38s-.17-1.01-.5-1.35c-.33-.34-.75-.52-1.26-.52M60.11,57.68l-1.33.73c-.25-.26-.5-.44-.74-.55-.24-.1-.53-.15-.86-.15-.6,0-1.08.18-1.46.54-.37.36-.55.81-.55,1.37s.18.99.53,1.33c.36.35.82.52,1.4.52.72,0,1.28-.25,1.67-.73l1.26.86c-.69.89-1.65,1.33-2.9,1.33-1.12,0-2.01-.33-2.64-1-.64-.66-.95-1.44-.95-2.34,0-.62.15-1.19.46-1.71.31-.52.74-.93,1.3-1.23.55-.3,1.17-.45,1.86-.45.63,0,1.2.13,1.71.38.5.25.92.61,1.24,1.08M56.39,62.68h.99l-.07.27c.26.06.47.17.62.34.15.17.22.36.22.56,0,.32-.13.59-.4.82-.27.23-.64.34-1.11.34-.38,0-.82-.09-1.3-.27l.21-.75c.28.09.56.13.83.13.2,0,.35-.04.45-.11.1-.08.15-.18.15-.3,0-.1-.04-.18-.11-.24-.07-.06-.19-.09-.35-.09h-.33s.21-.69.21-.69ZM66.28,56.39h1.6v6.39h-1.6v-.67c-.31.3-.63.51-.94.64-.32.13-.66.2-1.03.2-.83,0-1.54-.32-2.15-.96-.6-.64-.9-1.43-.9-2.39s.29-1.79.87-2.42c.58-.63,1.29-.95,2.13-.95.38,0,.74.07,1.08.22.34.15.65.36.94.65v-.71ZM64.59,57.71c-.5,0-.91.17-1.24.52-.33.35-.49.8-.49,1.35s.17,1.01.5,1.36c.33.36.75.53,1.24.53s.92-.18,1.26-.53c.33-.35.5-.81.5-1.38s-.17-1.01-.5-1.35c-.33-.34-.75-.52-1.26-.52M62.91,55.2l-.65-.97c.5-.39,1.01-.58,1.52-.58.19,0,.52.07.99.2.32.09.57.13.76.13.33,0,.67-.1,1.02-.3l.61.92c-.49.42-.97.63-1.43.63-.25,0-.54-.05-.89-.16-.28-.08-.46-.13-.54-.15-.1-.02-.22-.02-.36-.02-.35,0-.69.1-1.04.31M72.51,56.23c.6,0,1.17.15,1.7.45.53.3.95.71,1.24,1.23.3.52.45,1.07.45,1.67s-.15,1.17-.45,1.69c-.3.52-.71.93-1.23,1.23-.52.29-1.09.44-1.71.44-.92,0-1.7-.33-2.35-.98-.65-.65-.97-1.44-.97-2.37,0-1,.37-1.83,1.1-2.49.64-.58,1.38-.87,2.22-.87M72.53,57.73c-.5,0-.91.17-1.24.52-.33.35-.5.79-.5,1.33s.16,1,.49,1.35c.33.35.74.52,1.24.52s.92-.17,1.25-.52c.33-.35.5-.8.5-1.34s-.16-.99-.49-1.33c-.33-.34-.75-.51-1.26-.51M80.1,54.14h1.69l2.18,6.13,2.2-6.13h1.69l-3.12,8.63h-1.59l-3.06-8.63ZM93.73,56.39h1.6v6.39h-1.6v-.67c-.31.3-.63.51-.94.64-.32.13-.66.2-1.03.2-.83,0-1.54-.32-2.14-.96-.6-.64-.9-1.43-.9-2.39s.29-1.79.87-2.42c.58-.63,1.29-.95,2.13-.95.38,0,.74.07,1.08.22.34.15.65.36.94.65v-.71ZM92.04,57.71c-.5,0-.91.17-1.24.52-.33.35-.49.8-.49,1.35s.17,1.01.5,1.36c.33.36.75.53,1.24.53s.92-.18,1.26-.53c.33-.35.5-.81.5-1.38s-.17-1.01-.5-1.35c-.33-.34-.75-.52-1.26-.52M96.95,56.39h1.6v.65c.37-.31.69-.52.99-.64.3-.12.6-.18.91-.18.64,0,1.17.22,1.62.66.37.37.56.93.56,1.67v4.22h-1.59v-2.8c0-.76-.03-1.27-.1-1.52-.07-.25-.19-.44-.36-.57-.17-.13-.38-.2-.63-.2-.33,0-.61.11-.84.33-.23.22-.4.52-.49.9-.05.2-.07.63-.07,1.3v2.56h-1.6v-6.39ZM103.9,56.39h4.91l-2.88,5.03h2.72v1.36h-5.18l2.89-5.03h-2.45v-1.36ZM112.72,56.23c.6,0,1.17.15,1.7.45.53.3.95.71,1.24,1.23.3.52.45,1.07.45,1.67s-.15,1.17-.45,1.69c-.3.52-.71.93-1.23,1.23-.52.29-1.09.44-1.71.44-.92,0-1.7-.33-2.35-.98-.65-.65-.97-1.44-.97-2.37,0-1,.37-1.83,1.1-2.49.64-.58,1.38-.87,2.21-.87M112.74,57.73c-.5,0-.91.17-1.24.52-.33.35-.5.79-.5,1.33s.16,1,.49,1.35c.33.35.74.52,1.24.52s.92-.17,1.25-.52c.33-.35.5-.8.5-1.34s-.16-.99-.49-1.33c-.33-.34-.75-.51-1.26-.51M117.25,53.93h1.6v8.85h-1.6v-8.85ZM120.94,53.76c.28,0,.52.1.73.3.2.2.3.45.3.74s-.1.53-.3.73c-.2.2-.44.3-.72.3s-.53-.1-.73-.31c-.2-.2-.3-.45-.3-.75s.1-.52.3-.72c.2-.2.44-.3.72-.3M120.13,56.39h1.61v6.39h-1.61v-6.39ZM123.19,56.39h1.6v.65c.36-.31.69-.52.99-.64.3-.12.6-.18.91-.18.64,0,1.17.22,1.62.66.37.37.56.93.56,1.67v4.22h-1.59v-2.8c0-.76-.03-1.27-.1-1.52-.07-.25-.19-.44-.36-.57-.17-.13-.38-.2-.63-.2-.33,0-.61.11-.84.33-.23.22-.4.52-.49.9-.05.2-.07.63-.07,1.3v2.56h-1.6v-6.39ZM131.05,53.76c.28,0,.52.1.73.3.2.2.3.45.3.74s-.1.53-.3.73c-.2.2-.44.3-.72.3s-.53-.1-.73-.31c-.2-.2-.3-.45-.3-.75s.1-.52.3-.72c.2-.2.44-.3.72-.3M130.24,56.39h1.61v6.39h-1.61v-6.39Z"/>
</svg>