<?xml version="1.0" encoding="UTF-8"?>
<svg id="Camada_1" data-name="Camada 1" xmlns="http://www.w3.org/2000/svg" viewBox="0 0 150 70">
  <defs>
    <style>
      .cls-1 {
        fill: #fff;
      }
    </style>
  </defs>
  <g>
    <g>
      <path class="cls-1" d="M85.5,47.35c-1.14,0-2.16-.72-2.54-1.8l-1.5-4.28-.12-.33h-7.87c-.11,0-.21-.05-.27-.14s-.08-.2-.05-.3l.74-2.42c.04-.14.17-.24.32-.24h6.02l-.21-.67-3.74-10.66-.24-.66c-.08-.22-.4-.22-.47,0l-6.79,19.51c-.41,1.19-1.54,1.99-2.8,1.99h-1.48c-.16,0-.25-.1-.28-.15-.03-.04-.09-.16-.04-.31l8.68-22.61c.51-1.32,1.78-2.2,3.2-2.2h2.51c.14,0,.27.09.32.22l9,24.59c.05.15,0,.27-.04.31-.03.04-.12.14-.28.14h-2.05Z"/>
      <path class="cls-1" d="M101.75,55.61c-.16,0-.29-.13-.29-.29v-8.96l-.65.56c-.21.13-.43.23-.66.32-.61.24-1.21.39-1.79.47-.59.08-1.08.12-1.44.12-2.4,0-4.26-.72-5.54-2.13-1.29-1.43-1.94-3.48-1.94-6.1,0-1.77.22-3.26.67-4.41.43-1.13,1.05-2.03,1.82-2.67.79-.65,1.7-1.12,2.73-1.39,1.05-.28,2.19-.43,3.39-.43s2.42.13,3.48.39c1.02.25,1.84.68,2.45,1.28.59.58.87,1.38.87,2.44v20.52c0,.16-.13.29-.29.29h-2.81ZM97.91,33.45c-1.26,0-2.28.26-3.02.77-.74.52-1.27,1.24-1.57,2.16-.28.87-.43,1.87-.43,2.97,0,1.28.2,2.36.6,3.21.41.87.99,1.53,1.73,1.97.73.43,1.6.65,2.58.65.56,0,1.14-.08,1.74-.23.6-.15,1.17-.38,1.69-.67l.23-.16v-8.61c0-.52-.22-.96-.63-1.27-.35-.27-.8-.48-1.34-.61-.51-.12-1.04-.18-1.59-.18Z"/>
      <path class="cls-1" d="M116.49,47.85c-1.52,0-2.85-.24-3.95-.73-1.08-.47-1.93-1.19-2.53-2.13-.6-.94-.9-2.18-.9-3.68v-9.77c0-.26.21-.47.47-.47h2.52c.26,0,.47.21.47.47v9.33c0,1.37.32,2.42.96,3.11.65.7,1.65,1.06,2.97,1.06s2.38-.36,3.02-1.06c.63-.69.94-1.74.94-3.11v-9.33c0-.26.21-.47.47-.47h2.28c.26,0,.47.21.47.47v9.77c0,2.21-.63,3.87-1.87,4.92-1.26,1.07-3.05,1.61-5.31,1.61Z"/>
      <path class="cls-1" d="M133.88,47.85c-.92,0-1.8-.09-2.63-.26-.81-.17-1.54-.45-2.17-.85-.61-.38-1.1-.9-1.46-1.57-.36-.67-.54-1.53-.54-2.56s.22-1.99.65-2.72c.43-.72,1.07-1.28,1.9-1.66.86-.39,1.93-.59,3.2-.59.78,0,1.52.07,2.19.21.67.14,1.28.33,1.82.57.24.11.47.22.67.34l.65.49v-2.24c0-1.25-.41-2.19-1.23-2.78-.77-.56-1.85-.85-3.21-.85-1.01,0-2.06.17-3.12.51-.73.23-1.37.52-1.92.85v-2.84c.56-.3,1.38-.58,2.42-.84,1.18-.29,2.48-.43,3.84-.43.56,0,1.16.06,1.8.16.62.11,1.23.28,1.79.52.55.23,1.07.55,1.53.96.45.4.81.91,1.08,1.52.27.61.4,1.37.4,2.25v8.12c0,.94-.29,1.65-.87,2.17-.62.55-1.5.94-2.62,1.16-1.17.23-2.57.35-4.16.35ZM134.49,39.77c-1.3,0-2.25.21-2.92.65-.72.47-1.08,1.2-1.08,2.16,0,.67.19,1.24.58,1.69.36.43.83.76,1.4.97.54.21,1.12.32,1.72.32,1.3,0,2.22-.09,2.83-.27.73-.22,1.14-.76,1.14-1.52v-3.25l-.28-.16c-.27-.1-.57-.2-.88-.28-.77-.2-1.61-.3-2.5-.3Z"/>
    </g>
    <g>
      <path class="cls-1" d="M92.57,27.2c-.31,0-.61-.04-.9-.13-.29-.09-.54-.23-.77-.42-.23-.19-.4-.44-.54-.75-.13-.31-.2-.68-.2-1.12s.06-.85.19-1.17c.13-.32.3-.58.52-.78.22-.2.47-.35.77-.44.29-.09.6-.14.93-.14.25,0,.51.03.77.08.26.05.5.12.7.22v1.03c-.21-.09-.43-.17-.64-.23-.21-.06-.43-.09-.66-.09-.44,0-.78.11-1.02.33-.24.22-.37.58-.37,1.08s.11.9.33,1.15c.22.25.59.38,1.1.38.23,0,.46-.04.68-.11.22-.07.41-.15.58-.24v1.04c-.22.11-.45.19-.69.24s-.5.08-.79.08Z"/>
      <path class="cls-1" d="M97.2,27.24c-.47,0-.88-.1-1.23-.29-.35-.19-.62-.47-.82-.84-.19-.37-.29-.81-.29-1.33,0-.83.2-1.46.6-1.89.4-.44.96-.65,1.68-.65.52,0,.94.11,1.25.34.32.23.55.55.7.96.15.42.22.91.21,1.49h-3.66l-.09-.81h2.81l-.23.34c-.01-.49-.1-.85-.26-1.07-.16-.22-.42-.32-.77-.32-.21,0-.4.05-.56.15-.16.1-.28.26-.37.48s-.13.54-.13.93c0,.49.12.86.35,1.12.23.26.59.39,1.06.39.19,0,.38-.02.56-.06.18-.04.34-.09.5-.15.15-.06.28-.11.39-.16v1.05c-.22.09-.47.17-.75.23-.28.06-.6.09-.95.09Z"/>
      <path class="cls-1" d="M100.34,27.1v-4.27c.09-.06.24-.13.47-.23s.48-.18.78-.25c.29-.07.59-.11.89-.11.23,0,.41.02.54.05.13.03.24.08.31.13v.9c-.13-.02-.27-.03-.43-.05-.16-.01-.32-.02-.49-.01-.17,0-.33.01-.48.02-.15.01-.29.03-.4.05v3.77h-1.19Z"/>
      <path class="cls-1" d="M106.04,27.25c-.49,0-.86-.12-1.12-.36s-.39-.59-.39-1.05v-2.54h-.73v-.94h.73v-1.31h1.23v1.31h1.1v.94h-1.1v2.35c0,.19.04.34.11.43.08.09.21.14.39.14.1,0,.21-.02.31-.05.11-.03.2-.08.28-.13v1.03c-.13.06-.26.11-.41.13-.15.03-.29.04-.42.04Z"/>
      <path class="cls-1" d="M107.96,21.66v-.98h1.25v.98h-1.25ZM107.99,27.1v-4.69h1.19v4.69s-1.19,0-1.19,0Z"/>
      <path class="cls-1" d="M110.9,27.1v-3.8h-.72v-.94h.73v-.15c0-.32.03-.59.1-.81.07-.22.16-.4.28-.54s.25-.25.39-.32c.15-.07.3-.12.46-.15s.33-.04.49-.04c.09,0,.19,0,.3.02.11.01.2.03.27.06v1.05c-.06-.05-.12-.09-.18-.12-.07-.03-.15-.04-.26-.04-.09,0-.17,0-.25.02-.08.02-.15.05-.22.1-.06.05-.11.13-.15.23s-.05.23-.05.4v.27h1.11v.94h-1.12v3.8h-1.19ZM114.08,21.66v-.98h1.25v.98h-1.25ZM114.11,27.1v-4.69h1.19v4.69s-1.19,0-1.19,0Z"/>
      <path class="cls-1" d="M118.79,27.2c-.31,0-.61-.04-.9-.13-.29-.09-.54-.23-.77-.42-.23-.19-.4-.44-.54-.75-.13-.31-.2-.68-.2-1.12s.06-.85.19-1.17c.13-.32.3-.58.52-.78.22-.2.47-.35.77-.44.29-.09.6-.14.93-.14.25,0,.51.03.77.08.26.05.5.12.7.22v1.03c-.21-.09-.43-.17-.64-.23-.21-.06-.43-.09-.66-.09-.44,0-.78.11-1.02.33-.24.22-.37.58-.37,1.08s.11.9.33,1.15c.22.25.59.38,1.1.38.23,0,.46-.04.68-.11.22-.07.41-.15.58-.24v1.04c-.22.11-.45.19-.69.24s-.5.08-.79.08Z"/>
      <path class="cls-1" d="M123.1,27.24c-.26,0-.51-.03-.75-.08-.24-.05-.45-.13-.64-.25-.19-.12-.34-.28-.45-.48-.11-.2-.16-.46-.16-.77s.07-.59.2-.81c.13-.22.32-.39.58-.51.25-.12.57-.17.93-.17.23,0,.44.02.63.06.19.04.37.1.53.16.16.07.28.14.39.23l.08.67c-.13-.09-.3-.16-.5-.21-.2-.05-.42-.08-.66-.08-.33,0-.58.05-.74.16s-.24.27-.24.5c0,.16.04.29.13.39.09.1.2.18.34.23.14.05.28.08.43.08.34,0,.59-.02.75-.07.15-.05.23-.15.23-.31v-1.87c0-.31-.1-.53-.29-.67-.19-.14-.47-.21-.82-.21-.27,0-.54.05-.83.14-.28.09-.51.21-.69.35v-1.08c.17-.11.42-.2.76-.28.34-.08.7-.12,1.09-.12.16,0,.34.02.52.05.18.03.36.08.52.15.17.07.32.16.46.29.14.12.25.28.33.46.08.18.12.41.12.67v2.25c0,.29-.09.52-.28.69s-.45.28-.78.35-.72.1-1.17.1Z"/>
      <path class="cls-1" d="M128.8,27.2c-.31,0-.61-.04-.9-.13-.29-.09-.54-.23-.77-.42-.23-.19-.4-.44-.54-.75-.13-.31-.2-.68-.2-1.12s.06-.85.19-1.17c.13-.32.3-.58.52-.78.22-.2.47-.35.77-.44.29-.09.6-.14.93-.14.25,0,.51.03.77.08.26.05.5.12.7.22v1.03c-.21-.09-.43-.17-.64-.23-.21-.06-.43-.09-.66-.09-.44,0-.78.11-1.02.33-.24.22-.37.58-.37,1.08s.11.9.33,1.15c.22.25.59.38,1.1.38.23,0,.46-.04.68-.11.22-.07.41-.15.58-.24v1.04c-.22.11-.45.19-.69.24s-.5.08-.79.08ZM127.56,28.31l.83-1.16h.79l-.52,1.16h-1.1Z"/>
      <path class="cls-1" d="M133.1,27.24c-.26,0-.51-.03-.75-.08-.24-.05-.45-.13-.64-.25-.19-.12-.34-.28-.45-.48-.11-.2-.16-.46-.16-.77s.07-.59.2-.81c.13-.22.32-.39.58-.51.25-.12.57-.17.93-.17.23,0,.44.02.63.06.19.04.37.1.53.16.16.07.28.14.39.23l.08.67c-.13-.09-.3-.16-.5-.21-.2-.05-.42-.08-.66-.08-.33,0-.58.05-.74.16s-.24.27-.24.5c0,.16.04.29.13.39.09.1.2.18.34.23.14.05.28.08.43.08.34,0,.59-.02.75-.07.15-.05.23-.15.23-.31v-1.87c0-.31-.1-.53-.29-.67-.19-.14-.47-.21-.82-.21-.27,0-.54.05-.83.14-.28.09-.51.21-.69.35v-1.08c.17-.11.42-.2.76-.28.34-.08.7-.12,1.09-.12.16,0,.34.02.52.05.18.03.36.08.52.15.17.07.32.16.46.29.14.12.25.28.33.46.08.18.12.41.12.67v2.25c0,.29-.09.52-.28.69s-.45.28-.78.35-.72.1-1.17.1ZM132.38,21.84h-.59c-.03-.24,0-.45.08-.63.08-.18.2-.33.35-.44.15-.11.33-.16.52-.16.16,0,.3.03.42.09.13.06.24.13.35.21.11.08.21.15.31.21.1.06.2.09.31.09.1,0,.18-.04.23-.13.05-.08.07-.21.06-.39h.62c.02.24-.01.46-.1.63s-.2.32-.36.41c-.15.1-.33.15-.52.15-.18,0-.34-.03-.47-.09-.13-.06-.25-.13-.35-.21-.1-.08-.19-.15-.28-.21-.09-.06-.18-.09-.26-.09-.12,0-.21.05-.26.16-.06.11-.08.24-.06.39Z"/>
      <path class="cls-1" d="M138.73,27.24c-.78,0-1.36-.22-1.75-.65-.39-.43-.58-1.06-.58-1.87,0-.87.2-1.5.6-1.9.4-.39.97-.59,1.72-.59.53,0,.96.09,1.32.28.35.18.61.46.78.83.17.37.26.83.26,1.38,0,.81-.2,1.44-.61,1.87-.4.43-.98.65-1.74.65ZM138.73,26.26c.28,0,.5-.06.67-.19.17-.13.3-.3.38-.53.08-.23.12-.5.12-.82,0-.36-.04-.65-.13-.87s-.21-.39-.39-.5c-.17-.11-.39-.16-.66-.16s-.5.06-.67.17-.29.28-.37.51c-.08.23-.12.51-.12.85,0,.5.09.88.27,1.15.18.26.48.39.88.39Z"/>
    </g>
  </g>
  <g>
    <g>
      <path class="cls-1" d="M57.09,32.05c0-2.32-1.1-4.54-2.96-5.94l-3.11-2.54c-.99.4-2.06.68-3.19.83l4.64,3.78.04.03c1.2.9,1.91,2.33,1.91,3.84l.12,12.41c0,.62-.5,1.12-1.12,1.12h-3.07c-.18-.44-.37-.86-.57-1.26-2.07-4.13-5.28-6.31-9.27-6.31-2.1,0-3.86,1.04-5.3,2.57-1.09-4.99-2.72-8.56-4.84-10.67-1.52-1.51-3.3-2.27-5.28-2.24-2.82.03-5.19,1.62-7.03,4.71-1.09,1.85-2.01,4.25-2.73,7.17-1-.65-2.12-1.09-3.34-1.33-.51-.1-.88-.56-.88-1.1v-10.08c0-1.5.72-2.93,1.91-3.83l14.37-10.77c1.68-1.26,4.03-1.27,5.72-.01l4.84,3.94,1.2.98c.1-.34.22-.67.35-1,.21-.54.46-1.06.74-1.55l-5.48-4.46-.04-.03c-2.63-1.97-6.3-1.97-8.93,0l-14.37,10.77c-1.87,1.4-2.98,3.62-2.98,5.96v10.08c0,1.81,1.28,3.37,3.03,3.71,1.3.26,2.37.83,3.24,1.6-1.13,6.18-1.15,12.02-1.15,12.27v2.56c0,2.15,1.75,3.89,3.89,3.89s3.89-1.75,3.89-3.89v-2.54c0-.36.09-3.71-.89-7.31-.65-2.38-1.61-4.34-2.86-5.84,1.1-5.24,3.29-11.2,7.51-11.24,1.26-.02,2.36.47,3.37,1.47,2.44,2.41,3.81,7.15,4.58,11.68-1.74,2.95-2.79,6.31-3.31,7.97-.54,1.74-.82,3.56-.82,5.4v.4c0,2.15,1.75,3.89,3.89,3.89s3.89-1.75,3.89-3.89v-2.59c0-.19,0-4.63-.76-9.88-.04-.25-.07-.5-.11-.75,1.46-2.24,3.02-3.37,4.66-3.37,2.96,0,5.28,1.63,6.89,4.84.02.03.03.07.05.1-4.63.43-8.27,4.34-8.27,9.08,0,3.56,2.9,6.45,6.45,6.45.83,0,2.38,0,3.79-.82,1.77-1.03,2.66-2.93,2.66-5.63,0-2.15-.3-4.39-.85-6.46h2.19c2.09,0,3.78-1.7,3.78-3.8l-.12-12.41ZM18.71,54.66v2.61c0,.68-.55,1.23-1.23,1.23s-1.23-.55-1.23-1.23v-2.56c0-.05,0-4.28.69-9.23,1.92,4.01,1.77,9.1,1.76,9.18ZM34.07,57.27c0,.68-.55,1.23-1.23,1.23s-1.23-.55-1.23-1.23v-.4c0-1.57.23-3.12.7-4.61.45-1.45.92-2.77,1.4-3.95.35,3.59.36,6.3.36,6.37v2.59ZM45.64,58.5c-2.09,0-3.79-1.7-3.79-3.79,0-3.56,2.9-6.46,6.46-6.46h.17c.87,2.87.95,5.54.95,6.46,0,3.5-1.79,3.79-3.79,3.79Z"/>
      <path class="cls-1" d="M25.16,26.69c-2.65,0-4.8-2.15-4.8-4.8s2.15-4.8,4.8-4.8,4.8,2.15,4.8,4.8-2.15,4.8-4.8,4.8ZM25.16,19.75c-1.18,0-2.14.96-2.14,2.14s.96,2.14,2.14,2.14,2.14-.96,2.14-2.14-.96-2.14-2.14-2.14Z"/>
      <path class="cls-1" d="M40.52,36c-2.65,0-4.8-2.15-4.8-4.8s2.15-4.8,4.8-4.8,4.8,2.15,4.8,4.8-2.15,4.8-4.8,4.8ZM40.52,29.06c-1.18,0-2.14.96-2.14,2.14s.96,2.14,2.14,2.14,2.14-.96,2.14-2.14-.96-2.14-2.14-2.14Z"/>
    </g>
    <path class="cls-1" d="M57.21,8.84v1.95c0,6.22-2.73,10.4-7.23,11.93-1.06.36-2.21.57-3.44.63-.24.01-.49.02-.74.02-1.87,0-3.19.19-4.11.42-.05.01-.1.02-.15.02-.41,0-.73-.44-.54-.84.37-.81.91-1.81,1.63-2.8.5-.69,1.09-1.37,1.78-1.99.65-.58,1.38-1.11,2.21-1.53.25-.13.4-.41.31-.67-.08-.25-.3-.4-.53-.4-.08,0-.17.02-.25.06-1,.5-1.88,1.12-2.65,1.8-.7.62-1.3,1.3-1.79,1.97-.51.69-.91,1.39-1.2,2.03-.12.28-.31.41-.47.41-.17,0-.31-.15-.31-.43,0-1.15.14-2.25.41-3.29.17-.66.39-1.29.67-1.9.11-.24.23-.48.35-.71,1.79-3.28,5.22-5.46,9.99-5.52,4.89,0,6.05-1.19,6.05-1.19Z"/>
  </g>
</svg>