<?xml version="1.0" encoding="UTF-8"?>
<svg id="Camada_1" xmlns="http://www.w3.org/2000/svg" version="1.1" viewBox="0 0 110 135">
  <!-- Generator: Adobe Illustrator 29.4.0, SVG Export Plug-In . SVG Version: 2.1.0 Build 152)  -->
  <defs>
    <style>
      .st0 {
        fill: #5351d7;
      }
    </style>
  </defs>
  <path class="st0" d="M13.4,81.4h83.2c2.9,0,5.3-2.4,5.3-5.3V21.8c0-2.9-2.4-5.3-5.3-5.3H13.4c-2.9,0-5.3,2.4-5.3,5.3v54.4c0,2.9,2.4,5.3,5.3,5.3ZM11.3,21.8c0-1.2,1-2.1,2.1-2.1h83.2c1.2,0,2.1,1,2.1,2.1v54.4c0,1.2-1,2.1-2.1,2.1H13.4c-1.2,0-2.1-1-2.1-2.1V21.8Z"/>
  <path class="st0" d="M46.6,63.5c.2.1.5.2.8.2s.5,0,.8-.2l22.9-13.2c.5-.3.8-.8.8-1.4s-.3-1.1-.8-1.4l-22.9-13.2c-.5-.3-1.1-.3-1.6,0-.5.3-.8.8-.8,1.4v26.4c0,.6.3,1.1.8,1.4h0ZM48.9,38.5l18.2,10.5-18.2,10.5v-21Z"/>
  <path class="st0" d="M97.3,89.7h-60.3c-1.6-2.8-4.6-4.6-7.9-4.6s-6.3,1.8-7.9,4.6h-8.4c-2.5,0-4.6,2.1-4.6,4.6s2.1,4.6,4.6,4.6h8.4c1.6,2.8,4.6,4.6,7.9,4.6s6.3-1.8,7.9-4.6h60.3c2.5,0,4.6-2.1,4.6-4.6s-2.1-4.6-4.6-4.6ZM20,95.6c0,0,0,.1,0,.2h-7.2c-.8,0-1.5-.7-1.5-1.5s.7-1.5,1.5-1.5h7.2c0,0,0,.1,0,.2,0,.4-.1.9-.1,1.3s0,.9.1,1.3h0ZM34.6,96.7c-1,2.2-3.1,3.6-5.5,3.6s-4.6-1.4-5.6-3.7c-.3-.7-.5-1.5-.5-2.4s.2-1.7.5-2.4c1-2.2,3.1-3.6,5.5-3.6s4.6,1.4,5.5,3.6c.3.8.5,1.6.5,2.4s-.2,1.7-.5,2.4h0ZM97.3,95.8h-59.2c0,0,0-.1,0-.2,0-.4.1-.9.1-1.3s0-.9-.1-1.3c0,0,0-.1,0-.2h59.2c.8,0,1.5.7,1.5,1.5s-.7,1.5-1.5,1.5h0Z"/>
</svg>