<?xml version="1.0" encoding="UTF-8"?>
<svg id="Camada_1" data-name="Camada 1" xmlns="http://www.w3.org/2000/svg" viewBox="0 0 70 70">
  <defs>
    <style>
      .cls-1 {
        fill: none;
        stroke: #fff;
        stroke-miterlimit: 10;
        stroke-width: .75px;
      }

      .cls-2 {
        fill: #fff;
      }
    </style>
  </defs>
  <circle class="cls-1" cx="35" cy="35" r="19.14"/>
  <path id="Caminho_2886" data-name="Caminho 2886" class="cls-2" d="M35,22.03c-7.16,0-12.97,5.8-12.97,12.97s5.8,12.97,12.97,12.97,12.97-5.8,12.97-12.97h0c0-7.16-5.81-12.96-12.97-12.97ZM40.95,40.75c-.26.36-.76.46-1.12.2h0c-3.04-2.14-8.1-2.26-11.51-1.46-.43.11-.88-.15-.98-.59s.15-.88.59-.98c.01,0,.02,0,.03,0,3.75-.87,9.36-.71,12.8,1.71.36.26.46.76.2,1.13h0ZM42.53,37.59c-.26.36-.77.45-1.13.19h0c-3.52-2.53-7.86-3.16-13.63-1.98-.44.09-.87-.19-.96-.63-.09-.44.19-.87.63-.96h0c6.25-1.28,10.99-.56,14.91,2.25.36.26.44.77.19,1.13h0ZM44.13,33.34c-.25.37-.75.47-1.12.22h0c-4.47-3.03-11.26-3.05-15.66-1.49-.42.15-.89-.06-1.04-.48s.06-.89.48-1.04c0,0,.01,0,.02,0,4.78-1.69,12.19-1.65,17.11,1.68.37.25.47.76.22,1.13h0Z"/>
</svg>